<svg xmlns="http://www.w3.org/2000/svg" version="1.1" xmlns:xlink="http://www.w3.org/1999/xlink" xmlns:svgjs="http://svgjs.dev/svgjs" width="2000" height="1892" viewBox="0 0 2000 1892"><g transform="matrix(1,0,0,1,-1.1242682623342262,0.7659919028340028)"><svg viewBox="0 0 261 247" data-background-color="#ffffff" preserveAspectRatio="xMidYMid meet" height="1892" width="2000" xmlns="http://www.w3.org/2000/svg" xmlns:xlink="http://www.w3.org/1999/xlink"><g id="tight-bounds" transform="matrix(1,0,0,1,0.1467170082346172,-0.09999999999999432)"><svg viewBox="0 0 260.70655830510105 247.2" height="247.2" width="260.70655830510105"><g><svg viewBox="0 0 260.70655830510105 247.2" height="247.2" width="260.70655830510105"><g><svg viewBox="0 0 260.70655830510105 247.2" height="247.2" width="260.70655830510105"><g><svg viewBox="0 0 395.52 375.0290926152238" height="247.2" width="260.70655830510105"><g transform="matrix(1,0,0,1,0,227.44462940653864)"><svg viewBox="0 0 395.52 147.58446320868515" height="147.58446320868515" width="395.52"><g id="textblocktransform"><svg viewBox="0 0 395.52 147.58446320868515" height="147.58446320868515" width="395.52" id="textblock"><g><svg viewBox="0 0 395.52 147.58446320868515" height="147.58446320868515" width="395.52"><g transform="matrix(1,0,0,1,0,0)"><svg width="395.52" viewBox="3.5 -35 124.33999633789062 46.400001525878906" height="147.58446320868515" data-palette-color="#54183f"><path d="M27.55-17.5L27.55-17.5Q27.5-9.15 22.93-4.58 18.35 0 10.3 0L10.3 0 3.5 0 3.5-35 10.3-35Q18.35-35 22.93-30.43 27.5-25.85 27.55-17.5ZM8.2-4.4L10.9-4.4Q16.45-4.4 19.43-8.08 22.4-11.75 22.5-17.5L22.5-17.5Q22.4-23.25 19.43-26.93 16.45-30.6 10.9-30.6L10.9-30.6 8.2-30.6 8.2-4.4ZM45.3-24.5L45.3-24.5Q53.8-24.15 53.8-17.45L53.8-17.45Q53.8-9.1 42.85-9.1L42.85-9.1 40.8-9.1 40.8-12.95 43.2-12.95Q46.55-12.95 47.85-13.98 49.15-15 49.15-17.4L49.15-17.4Q49.15-18.95 48-19.73 46.85-20.5 45.05-20.5L45.05-20.5Q41.5-20.5 39.47-18 37.45-15.5 37.45-12L37.45-12Q37.45-8.3 39.62-6 41.8-3.7 45.3-3.7L45.3-3.7Q48.45-3.7 50.45-5.25L50.45-5.25 53.45-2.3Q50 0.5 45.3 0.5L45.3 0.5Q39.6 0.5 36.2-2.85 32.8-6.2 32.8-11.5L32.8-11.5Q32.8-17.4 36.15-21.05 39.5-24.7 45.3-24.5ZM58.8-9.5L58.8-9.5 58.8-35 63.3-35 63.3-9.5Q63.3-7.7 63.72-6.58 64.14-5.45 65.05-4.98 65.95-4.5 66.8-4.35 67.65-4.2 69.05-4.2L69.05-4.2 69.05 0Q63.45 0 61.12-2.15 58.8-4.3 58.8-9.5ZM78.79-24L78.79 0 74.39 0 74.39-19.8 70.29-19.8 72.29-24 78.79-24ZM74.19-29L74.19-29Q73.54-29.85 73.54-30.85 73.54-31.85 74.19-32.68 74.84-33.5 76.19-33.5 77.54-33.5 78.19-32.68 78.84-31.85 78.84-30.85 78.84-29.85 78.19-29.03 77.54-28.2 76.19-28.2 74.84-28.2 74.19-29ZM94.09 0.55L94.09 0.55Q89.79-3.5 87.77-8.4 85.74-13.3 83.74-24L83.74-24 88.34-24Q90.29-11.95 94.09-5.75L94.09-5.75Q97.89-11.95 99.84-24L99.84-24 104.44-24Q102.44-13.3 100.42-8.4 98.39-3.5 94.09 0.55ZM107.94-11.65L107.94-24 112.34-24 112.34-11.45Q112.34-7.4 113.59-5.8 114.84-4.2 118.19-4.2L118.19-4.2 123.44-4.2 123.44-24 127.84-24 127.84-1.2Q127.84 5.05 124.56 8.22 121.29 11.4 114.29 11.4L114.29 11.4 110.69 11.4 110.69 7.2 113.84 7.2Q122.99 7.2 123.44 0L123.44 0 119.24 0Q112.69 0 110.31-2.3 107.94-4.6 107.94-11.65L107.94-11.65Z" opacity="1" transform="matrix(1,0,0,1,0,0)" fill="#54183f" class="wordmark-text-0" data-fill-palette-color="primary" id="text-0"></path></svg></g></svg></g></svg></g></svg></g><g transform="matrix(1,0,0,1,75.54432000000001,0)"><svg viewBox="0 0 244.43135999999996 192.60347967008508" height="192.60347967008508" width="244.43135999999996"><g><svg xmlns="http://www.w3.org/2000/svg" xmlns:xlink="http://www.w3.org/1999/xlink" version="1.1" x="0" y="0" viewBox="5.208000183105469 14.62399959564209 89.79199981689453 70.75299835205078" enable-background="new 0 0 100 100" xml:space="preserve" height="192.60347967008508" width="244.43135999999996" class="icon-icon-0" data-fill-palette-color="accent" id="icon-0"><g fill="#54183f" data-fill-palette-color="accent"><polygon points="32.302,36.596 5.979,25.908 11.448,23.911 37.458,34.471  " fill="#54183f" data-fill-palette-color="accent"></polygon></g><g fill="#54183f" data-fill-palette-color="accent"><polygon points="44.692,31.671 18.37,20.983 23.838,18.986 49.849,29.546  " fill="#54183f" data-fill-palette-color="accent"></polygon></g><g fill="#54183f" data-fill-palette-color="accent"><polygon points="55.466,27.309 29.144,16.621 34.612,14.624 60.623,25.184  " fill="#54183f" data-fill-palette-color="accent"></polygon></g><g fill="#54183f" data-fill-palette-color="accent"><polygon points="31.531,47.455 7.105,37.538 5.208,32.566 31.499,43.226  " fill="#54183f" data-fill-palette-color="accent"></polygon></g><g fill="#54183f" data-fill-palette-color="accent"><polygon points="31.531,56.002 13.015,48.446 11.32,43.553 31.499,51.772  " fill="#54183f" data-fill-palette-color="accent"></polygon></g><g fill="#54183f" data-fill-palette-color="accent"><polygon points="31.531,64.634 21.308,60.437 19.025,55.304 31.499,60.404  " fill="#54183f" data-fill-palette-color="accent"></polygon></g><g fill="#54183f" data-fill-palette-color="accent"><path d="M35.526 72.919l29.345 12.457 0.001-33.399L35.526 39.506V72.919zM40.088 46.218l20.614 8.752v23.448l-20.614-8.751V46.218z" fill="#54183f" data-fill-palette-color="accent"></path><path d="M83.089 44.584v-0.427l-1.156 0.494 1.156-0.501-0.502-0.204 11.911-5.051L65.264 27.309 36.06 38.882l29.204 12.411 12.243-5.192 0.534 0.217v0.407l-12.386 5.253-0.001 33.399L95 72.919V39.532L83.089 44.584zM83.839 39.251l-6.266 2.659-18.568-7.54 6.259-2.48L83.839 39.251zM65.264 47.137l-18.576-7.885 7.06-2.798 18.748 7.613L65.264 47.137zM90.26 69.539L70.004 78.14V55.098l8.037-3.412v5.479l1.245-2.58 0.846 0.48 0.78-1.84 0.724 1.013 0.613-0.613 0.84 1.382v-5.465l7.171-3.044V69.539z" fill="#54183f" data-fill-palette-color="accent"></path></g><path d="M87.667 57.529c0 1.296-1.052 2.787-2.35 3.331-1.296 0.541-2.348-0.07-2.348-1.367 0-1.299 1.052-2.79 2.348-3.331C86.615 55.619 87.667 56.231 87.667 57.529z" fill="#54183f" data-fill-palette-color="accent"></path><path d="M80.641 60.467c0 1.296-1.052 2.786-2.351 3.329-1.296 0.543-2.348-0.071-2.348-1.367 0-1.297 1.052-2.789 2.348-3.331C79.589 58.557 80.641 59.169 80.641 60.467z" fill="#54183f" data-fill-palette-color="accent"></path><path d="M81.579 70.204c-3.589 1.5-6.657 0.217-7.294-3.05l1.738-1.039c0.484 2.489 2.822 3.467 5.556 2.324 2.737-1.144 5.074-4.074 5.559-6.969l1.738-0.414C88.239 64.856 85.171 68.704 81.579 70.204z" fill="#54183f" data-fill-palette-color="accent"></path></svg></g></svg></g><g></g></svg></g></svg></g></svg></g><defs></defs></svg><rect width="260.70655830510105" height="247.2" fill="none" stroke="none" visibility="hidden"></rect></g></svg></g></svg>